<svg width="318" height="401" viewBox="0 0 318 401" fill="none" xmlns="http://www.w3.org/2000/svg">
<path d="M11.0542 394.922C7.93938 398.037 2.7072 397.855 2.7072 397.855C2.7072 397.855 2.52512 392.623 5.63992 389.508C8.75473 386.393 13.9869 386.575 13.9869 386.575C13.9869 386.575 14.169 391.807 11.0542 394.922Z" fill="#FFF1CE"/>
<circle cx="62.1067" cy="276" r="4" fill="#FFF1CE"/>
<circle cx="220.107" cy="286" r="4" fill="#FFF1CE"/>
<circle cx="307.107" cy="252" r="4" fill="#FFF1CE"/>
<circle cx="234.607" cy="93.5" r="3.5" fill="#FFF1CE"/>
<circle cx="57.6067" cy="194.5" r="3.5" fill="#FFF1CE"/>
<circle cx="159.107" cy="135" r="3" fill="#FFF1CE"/>
<path d="M263.429 273.432C264.342 277.542 267.265 281.104 271.01 283.205C274.572 285.215 278.409 285.58 282.428 285.397C282.61 285.397 282.793 285.397 282.884 285.397C282.884 285.215 282.884 285.032 282.884 284.849C282.519 279.552 280.692 274.345 277.769 269.961C274.846 265.759 270.919 262.288 267.083 259C264.16 263.202 262.333 268.773 263.429 273.432Z" fill="#AEDC90"/>
<path d="M263.429 273.432C264.342 277.542 267.265 281.104 271.01 283.205C274.572 285.215 278.409 285.58 282.428 285.397C282.61 285.397 282.793 285.397 282.884 285.397C265.347 275.624 266.991 259 266.991 259C264.16 263.202 262.333 268.773 263.429 273.432Z" fill="#7CA661"/>
<path d="M267.813 267.403C268.635 271.514 271.101 275.533 273.75 278.638C276.125 281.378 279.048 283.845 282.336 285.489C282.519 285.489 282.702 285.489 282.793 285.489C282.793 285.306 282.793 285.123 282.793 284.941C279.505 283.114 276.582 281.013 274.116 278.09C272.746 276.446 271.558 274.71 270.553 272.792C269.64 271.057 269.001 269.139 268.361 267.312C268.27 266.855 267.722 267.038 267.813 267.403Z" fill="#39700B"/>
<path d="M101.796 82.7482C107 80.5971 111.788 76.8501 114.98 73.1725C121.433 65.6785 122.474 54.6457 120.322 45.0007C119.212 39.9353 117.269 34.9393 114.147 30.776C106.237 19.9514 92.4976 13.9839 79.175 13.0819C70.9177 12.5268 61.8972 14.8166 54.9583 19.2575C43.648 26.6127 38.5826 42.2945 44.4806 55.409C49.8929 67.4133 58.7053 65.1928 68.4197 70.5357C76.3994 74.9072 81.1873 83.789 91.1792 84.691C94.7181 84.9686 98.3956 84.2053 101.796 82.7482Z" fill="#F4F4F4"/>
<path d="M44.5501 55.3395C49.9625 67.3438 58.7748 65.1233 68.4892 70.4663C76.4689 74.8378 81.2568 83.7195 91.2487 84.6216C94.7182 84.8991 98.3264 84.1358 101.796 82.6787C103.877 81.846 105.82 80.7358 107.694 79.4868C84.4486 78.3072 57.3871 60.4049 52.6686 45.7639C49.338 35.3556 53.2237 24.8779 57.1095 17.8696C56.3462 18.286 55.6523 18.7023 54.9584 19.1186C43.7175 26.5432 38.6521 42.2251 44.5501 55.3395Z" fill="#E3E3E3"/>
<path d="M96.9384 67.8988C105.408 67.8988 112.273 61.0331 112.273 52.5639C112.273 44.0947 105.408 37.229 96.9384 37.229C88.4692 37.229 81.6035 44.0947 81.6035 52.5639C81.6035 61.0331 88.4692 67.8988 96.9384 67.8988Z" fill="#EBB64A"/>
<path d="M100.894 64.8458C92.4282 64.8458 85.5587 57.9763 85.5587 49.5109C85.5587 45.4864 87.1546 41.8088 89.722 39.0332C84.9342 41.6006 81.6035 46.666 81.6035 52.564C81.6035 61.0294 88.473 67.8989 96.9384 67.8989C101.379 67.8989 105.334 66.0254 108.11 63.0417C105.959 64.2213 103.461 64.8458 100.894 64.8458Z" fill="#E3A63B"/>
<path d="M108.387 53.5351C106.306 55.1311 106.583 50.3432 103.877 46.8738C101.171 43.4044 96.4526 42.5023 98.5343 40.9064C100.616 39.3104 104.502 40.7676 107.208 44.237C109.983 47.7759 110.469 51.8698 108.387 53.5351Z" fill="white"/>
<path d="M233.085 18.7907C229.807 17.6106 226.135 17.7417 222.923 19.2496C216.105 22.5277 204.566 28.8216 203.123 35.181C201.091 44.3596 224.496 55.9639 247.443 75.2389C270.389 94.5139 272.881 102.25 277.011 95.6284C281.141 89.0067 297.532 71.633 284.55 51.2435C274.323 35.1154 245.017 23.1177 233.085 18.7907Z" fill="#ECB579"/>
<path d="M277.011 95.6283C279.305 91.9569 285.468 84.8763 288.156 75.8288C284.55 79.3036 280.027 82.1883 274.716 80.6804C262.194 77.1401 238.002 47.1786 219.907 35.9021C214.007 32.1651 209.221 30.9194 205.549 30.9194C204.369 32.3618 203.517 33.8041 203.189 35.2465C201.157 44.425 224.562 56.0294 247.508 75.3044C270.324 94.5138 272.88 102.25 277.011 95.6283Z" fill="#DFA164"/>
<path d="M231.643 59.3071C234.134 58.5859 236.822 58.5859 239.445 58.5204C240.1 58.5204 240.756 58.5204 241.411 58.5204C252.032 58.2581 260.686 54.9145 265.866 49.014C266.98 47.7028 267.964 46.326 268.947 44.9492C269.34 44.3591 269.734 43.7691 270.193 43.179C271.111 41.8678 272.16 40.6221 273.209 39.3765C272.75 39.0487 272.291 38.7209 271.832 38.3931C270.783 39.6387 269.799 40.8844 268.816 42.1956C268.423 42.7857 267.964 43.3757 267.57 43.9658C266.652 45.277 265.669 46.6538 264.62 47.8994C259.769 53.4721 251.508 56.6191 241.411 56.8813C240.756 56.8813 240.166 56.8813 239.51 56.8813C236.757 56.8813 234.003 56.9469 231.249 57.7336C229.741 58.1925 228.365 58.7826 227.053 59.5693C227.578 59.8972 228.037 60.2905 228.561 60.6183C229.479 60.0938 230.528 59.6349 231.643 59.3071Z" fill="#F2D0A4"/>
<path d="M219.383 44.0317C220.563 44.3595 221.743 44.6217 222.857 44.9495C228.561 46.3919 235.249 47.572 241.542 45.474C246.263 43.9005 250.196 40.688 253.737 37.3444C255.966 35.312 258.064 33.1485 260.162 31.0505C259.637 30.7883 259.178 30.4605 258.654 30.1982C256.687 32.2306 254.655 34.1975 252.622 36.0987C249.213 39.2457 245.476 42.3926 241.018 43.835C235.183 45.7363 228.758 44.6217 223.251 43.2449C222.071 42.9827 220.956 42.6549 219.776 42.3271C214.99 41.0814 210.007 39.7702 204.959 39.7702C204.631 39.7702 204.304 39.7702 203.976 39.7702C204.304 40.2947 204.631 40.8847 205.025 41.4092C209.876 41.5403 214.728 42.786 219.383 44.0317Z" fill="#F2D0A4"/>
<path d="M222.726 53.0787C227.25 51.6364 232.036 51.702 235.773 51.8986C236.101 51.8986 236.429 51.9642 236.822 51.9642C239.313 52.0953 241.87 52.2265 244.427 51.702C247.64 50.9808 250.393 49.1451 252.95 47.3749C256.949 44.5558 261.08 41.4088 264.161 37.1474C264.817 36.2295 265.341 35.3772 265.866 34.3938C265.407 34.066 264.948 33.8037 264.423 33.5415C263.964 34.4594 263.44 35.3117 262.784 36.164C259.899 40.2287 255.9 43.3101 251.967 45.9981C249.541 47.7027 246.918 49.4073 243.968 50.0629C241.673 50.5874 239.182 50.4563 236.822 50.3252C236.494 50.3252 236.166 50.2596 235.773 50.2596C231.905 50.0629 226.857 49.9974 222.136 51.5053C220.694 51.9642 219.383 52.5543 218.137 53.2099C218.596 53.6032 219.12 53.931 219.645 54.3244C220.628 53.7999 221.677 53.4065 222.726 53.0787Z" fill="#F2D0A4"/>
<path d="M238.133 31.3128C235.052 32.6896 231.184 32.6896 226.332 31.3128C221.546 29.9361 217.023 27.707 213.023 24.7567C212.499 25.0845 212.04 25.4123 211.515 25.7401C215.777 28.9526 220.694 31.444 225.873 32.9519C231.118 34.4598 235.38 34.4598 238.854 32.8863C242.591 31.1817 245.017 27.9692 247.115 24.4945C246.591 24.2322 246.066 24.0356 245.542 23.8389C243.509 26.9858 241.411 29.8705 238.133 31.3128Z" fill="#F2D0A4"/>
<path d="M216.76 22.4619C220.694 24.6254 225.087 26.5267 229.741 26.9856C231.839 27.1823 233.609 27.0512 235.117 26.4611C237.346 25.6744 239.248 23.9698 240.625 21.6751C240.1 21.4785 239.576 21.2162 239.051 21.0195C237.871 22.8552 236.363 24.232 234.593 24.8221C233.347 25.281 231.839 25.4121 229.938 25.2154C225.939 24.8221 222.071 23.2486 218.53 21.4129C217.94 21.8063 217.35 22.1341 216.76 22.4619Z" fill="#F2D0A4"/>
<path d="M243.509 36.0331C236.822 40.4913 227.775 41.0813 220.563 37.541C218.858 36.6887 217.154 35.6397 215.58 34.5908C212.695 32.755 209.745 30.7882 206.27 30.067C205.812 30.526 205.353 31.0505 204.959 31.5749C205.287 31.6405 205.549 31.6405 205.877 31.7061C209.024 32.3617 211.778 34.1318 214.662 35.9675C216.301 37.0165 218.071 38.1311 219.842 39.0489C227.578 42.8515 237.281 42.1959 244.427 37.4099C248.164 34.9186 251.18 31.3783 253.081 27.3135C252.557 27.0512 252.098 26.8545 251.573 26.5923C249.803 30.3948 247.05 33.6729 243.509 36.0331Z" fill="#F2D0A4"/>
<path d="M270.061 91.6291C272.094 85.3352 273.995 79.4347 278.322 74.8454C279.502 73.5998 280.879 72.4852 282.19 71.3707C282.715 70.9118 283.239 70.4528 283.829 69.9939C285.796 68.2893 287.632 66.4536 289.402 64.5523C289.336 63.8311 289.205 63.11 289.074 62.3232C287.173 64.6179 285.009 66.7814 282.715 68.7483C282.19 69.2072 281.666 69.6661 281.141 70.0595C279.764 71.174 278.322 72.3541 277.076 73.6653C272.487 78.5169 270.455 84.8763 268.422 91.1046C268.16 91.9569 267.898 92.8092 267.57 93.6615C268.029 94.1204 268.488 94.5138 268.947 94.9072C269.34 93.7926 269.668 92.7436 270.061 91.6291Z" fill="#F2D0A4"/>
<path d="M278.453 93.4645C278.847 92.8744 279.306 92.2844 279.765 91.6288C279.502 90.0553 279.371 88.4163 279.633 86.8428C280.092 83.6959 281.731 80.7456 283.436 78.0576C285.206 75.2385 287.173 72.4849 289.271 69.928C289.336 69.0102 289.402 68.0923 289.402 67.1089C286.714 70.3214 284.223 73.665 281.994 77.1397C280.158 80.0244 278.388 83.1058 277.929 86.5806C277.667 88.9408 277.929 91.2354 278.453 93.4645Z" fill="#F2D0A4"/>
<path d="M264.489 82.2536C266.915 78.91 269.865 75.9598 272.75 73.0751C274.848 70.9115 277.077 68.748 279.044 66.3878C282.19 62.6508 284.682 58.7172 286.452 54.5868C286.124 53.9312 285.796 53.3412 285.403 52.6855C283.698 57.0126 281.076 61.3396 277.732 65.2733C275.765 67.5679 273.602 69.797 271.504 71.895C268.619 74.8452 265.603 77.861 263.112 81.2702C261.866 82.9748 260.817 84.745 260.031 86.4496C260.49 86.8429 260.883 87.3018 261.342 87.6952C262.129 85.8595 263.178 84.0238 264.489 82.2536Z" fill="#F2D0A4"/>
<path d="M254.065 65.4046C254.851 65.0112 255.704 64.6179 256.49 64.159C261.014 61.9299 265.669 59.6352 269.537 56.2916C273.274 53.0791 276.355 48.8832 278.519 44.0317C278.126 43.6383 277.667 43.2449 277.208 42.8516C275.11 47.7031 272.159 51.8334 268.422 55.0459C264.685 58.2584 260.096 60.4875 255.704 62.7166C254.917 63.11 254.065 63.5033 253.278 63.9623C249.41 65.9291 245.476 68.1582 242.198 71.1084C242.657 71.4362 243.05 71.8296 243.509 72.1574C246.656 69.4038 250.393 67.3059 254.065 65.4046Z" fill="#F2D0A4"/>
<path d="M251.901 78.9756C254.786 76.2876 258.129 73.9929 261.342 71.8294C264.686 69.5348 268.16 67.1746 271.176 64.3554C275.962 59.8973 279.502 54.3246 282.912 48.9486C282.584 48.4896 282.19 48.0307 281.797 47.5718C278.388 53.0134 274.782 58.7172 270.062 63.1754C267.111 65.9289 263.702 68.2891 260.424 70.5182C257.146 72.7473 253.737 75.0419 250.787 77.8611C250.721 77.9266 250.655 77.9922 250.59 78.0577C250.983 78.32 251.442 78.7133 251.901 78.9756C251.836 79.0411 251.836 79.0411 251.901 78.9756Z" fill="#F2D0A4"/>
<path d="M266.581 283.033C265.394 283.307 264.206 284.586 263.476 285.225C262.106 286.413 260.644 287.326 259 288.148C259.548 288.97 260.827 289.427 261.74 289.609C262.745 289.792 263.658 289.609 264.663 289.427C265.12 289.335 265.577 289.153 266.033 288.97C267.403 288.148 269.778 284.768 268.043 283.398C267.586 283.033 267.038 282.942 266.581 283.033Z" fill="#7CA661"/>
<path d="M147.658 3.92763C146.654 3.01423 146.197 1.3701 145.74 0C145.009 0.730722 144.096 1.18743 143 1.27877C143.457 3.28826 144.644 5.11506 146.471 6.02846C146.562 5.38908 147.11 4.38434 147.658 3.92763Z" fill="#AEDC90"/>
<path d="M153.129 159.466L150.754 157C150.754 157 150.389 162.937 145 165.129L147.192 166.773C147.192 166.773 151.759 164.947 153.129 159.466Z" fill="#AEDC90"/>
<path d="M13.9352 226C12.3824 226.913 10.921 227.735 9.36821 228.649C8.45481 229.197 7.54141 229.654 6.90202 230.476C6.1713 231.298 5.44058 232.759 6.628 233.49C7.81542 234.221 10.0076 233.033 11.0123 232.394C12.0171 231.754 13.0218 231.024 13.6612 229.928C14.94 227.918 13.7525 226.091 13.9352 226Z" fill="#7CA661"/>
<path d="M21.1511 83.8553C21.6078 86.1388 23.252 87.9656 25.2614 89.153C27.1796 90.2491 29.2804 90.4318 31.4726 90.3404C31.5639 90.3404 31.6552 90.3404 31.7466 90.3404C31.7466 90.2491 31.7466 90.1578 31.7466 90.0664C31.5639 87.1435 30.5592 84.4033 28.9151 81.9371C27.3623 79.6536 25.2614 77.8268 23.1606 76C21.6078 78.2835 20.6031 81.2977 21.1511 83.8553Z" fill="#AEDC90"/>
<path d="M21.1511 83.8553C21.6078 86.1388 23.252 87.9656 25.2614 89.153C27.1796 90.2491 29.2804 90.4318 31.4726 90.3404C31.5639 90.3404 31.6552 90.3404 31.7466 90.3404C22.2472 85.0427 23.1606 76 23.1606 76C21.6078 78.2835 20.6031 81.2977 21.1511 83.8553Z" fill="#7CA661"/>
<path d="M23.5257 80.5669C23.9824 82.7591 25.2612 84.9512 26.7226 86.5954C28.0014 88.0568 29.5542 89.4269 31.381 90.3403C31.4723 90.3403 31.5637 90.3403 31.655 90.3403C31.655 90.249 31.655 90.1576 31.655 90.0663C29.9196 89.0615 28.2754 87.9655 26.9967 86.3213C26.2659 85.4079 25.6266 84.4945 25.0785 83.4898C24.5305 82.485 24.2565 81.4803 23.8911 80.4756C23.7998 80.2929 23.5257 80.3842 23.5257 80.5669Z" fill="#39700B"/>
<path d="M317.595 50.8553C317.139 53.1388 315.495 54.9656 313.485 56.153C311.567 57.2491 309.466 57.4318 307.274 57.3404C307.183 57.3404 307.091 57.3404 307 57.3404C307 57.2491 307 57.1578 307 57.0664C307.183 54.1435 308.187 51.4033 309.832 48.9371C311.384 46.6536 313.485 44.8268 315.586 43C317.139 45.2835 318.143 48.2977 317.595 50.8553Z" fill="#AEDC90"/>
<path d="M317.595 50.8553C317.139 53.1388 315.495 54.9656 313.485 56.153C311.567 57.2491 309.466 57.4318 307.274 57.3404C307.183 57.3404 307.091 57.3404 307 57.3404C316.499 52.0427 315.586 43 315.586 43C317.139 45.2835 318.143 48.2977 317.595 50.8553Z" fill="#7CA661"/>
<path d="M315.221 47.5669C314.764 49.7591 313.485 51.9512 312.024 53.5954C310.745 55.0568 309.192 56.4269 307.366 57.3403C307.274 57.3403 307.183 57.3403 307.092 57.3403C307.092 57.249 307.092 57.1576 307.092 57.0663C308.827 56.0615 310.471 54.9655 311.75 53.3213C312.481 52.4079 313.12 51.4945 313.668 50.4898C314.216 49.485 314.49 48.4803 314.855 47.4756C314.947 47.2929 315.221 47.3842 315.221 47.5669Z" fill="#39700B"/>
<path d="M78.9125 291.65C81.3825 288.485 85.9365 287.945 89.1012 290.415C91.8799 292.576 92.6518 296.358 91.1081 299.369L104.539 304L115.19 261.316C113.724 261.316 112.18 260.852 110.868 259.849C107.858 257.456 107.317 253.134 109.633 250.046C111.717 247.345 115.499 246.65 118.432 248.194L124.067 225.578L106.237 214L95.0446 222.182C95.7393 224.42 95.4305 226.967 93.8868 228.897C91.494 231.985 87.0172 232.602 83.8525 230.286L54.2899 251.822C54.9074 252.053 55.5249 252.362 56.0652 252.748C58.5352 254.678 58.9983 258.305 57.0686 260.852C55.1389 263.322 51.5112 263.786 48.964 261.856C47.4974 260.698 46.7256 259 46.7256 257.302L37 264.403L60.3105 288.64L77.3688 294.506C77.7547 293.58 78.2178 292.576 78.9125 291.65Z" fill="#EBB64A"/>
<path d="M106.391 214.077L95.1989 222.259C95.8936 224.497 95.5848 227.045 94.0411 228.974C91.6483 232.062 87.1714 232.679 84.0068 230.364L54.4442 251.899C55.0617 252.13 55.6792 252.439 56.2195 252.825C58.6895 254.755 59.1526 258.382 57.2229 260.93C55.2932 263.4 51.6654 263.863 49.1183 261.933C47.6517 260.775 46.8799 259.077 46.8799 257.379L37.1543 264.48L60.4648 288.717L124.221 225.578L106.391 214.077Z" fill="#EEC94D"/>
<path d="M82.4632 253.751C80.8423 255.835 77.9092 256.144 75.8252 254.6C73.7411 252.979 73.4324 250.046 74.9761 247.962C76.597 245.878 79.5301 245.569 81.6142 247.113C83.6982 248.734 84.0842 251.744 82.4632 253.751Z" fill="#EBB64A"/>
<path d="M113.415 228.974C112.412 230.287 110.482 230.518 109.17 229.515C107.858 228.511 107.626 226.582 108.63 225.269C109.633 223.957 111.563 223.726 112.875 224.729C114.187 225.733 114.419 227.662 113.415 228.974Z" fill="#EBB64A"/>
<path d="M69.5729 274.823C67.7976 277.062 64.5558 277.448 62.3174 275.749C60.0789 273.974 59.693 270.732 61.3911 268.494C63.1664 266.255 66.4083 265.87 68.6467 267.568C70.9623 269.343 71.3482 272.585 69.5729 274.823Z" fill="#EBB64A"/>
<path d="M102.377 280.844C100.911 282.773 98.1321 283.082 96.2024 281.616C94.2727 280.149 93.964 277.37 95.4305 275.441C96.8971 273.511 99.6758 273.202 101.606 274.669C103.535 276.135 103.844 278.914 102.377 280.844Z" fill="#CC9431"/>
<path d="M223.761 249.391C223.761 249.391 199.184 269.829 193.751 269.829C188.318 269.829 184.524 261.291 178.573 268.449C172.537 275.606 185.817 280.522 185.817 280.522C185.817 280.522 182.626 290.008 189.353 293.285C196.079 296.562 196.769 287.938 198.494 280.436C200.132 272.933 232.557 259.825 232.557 259.825L223.761 249.391Z" fill="#F2D0A4"/>
<path d="M303.185 231.453C314.827 210.929 295.768 186.007 272.916 191.871C272.571 191.957 272.312 192.043 271.967 192.13C254.375 197.304 217.725 247.062 218.759 251.46C220.398 258.532 227.814 250.598 224.968 256.634C222.123 262.671 219.018 266.896 234.541 263.706C250.149 260.515 295.079 244.82 302.754 232.143C302.926 231.885 303.099 231.626 303.185 231.453Z" fill="#C89059"/>
<path d="M259.722 215.5C276.107 200.236 288.783 196.786 295.424 196.269C289.387 191.785 281.453 189.715 272.916 191.871C272.571 191.957 272.312 192.043 271.967 192.13C254.375 197.304 217.725 247.062 218.759 251.46C220.398 258.532 227.814 250.598 224.968 256.634C222.123 262.671 219.018 266.896 234.541 263.706C236.869 263.188 239.887 262.412 243.337 261.464C241.957 251.719 241.871 232.143 259.722 215.5Z" fill="#BA7F4A"/>
<path d="M268.259 220.329C267.397 220.846 266.189 220.587 265.672 219.725C265.155 218.863 265.413 217.655 266.276 217.138C267.138 216.621 268.345 216.879 268.863 217.742C269.38 218.604 269.121 219.811 268.259 220.329Z" fill="#BA7F4A"/>
<path d="M260.584 230.246C259.549 230.85 258.256 230.591 257.566 229.556C256.962 228.521 257.221 227.228 258.256 226.538C259.291 225.934 260.584 226.193 261.274 227.228C261.964 228.263 261.619 229.556 260.584 230.246Z" fill="#BA7F4A"/>
<path d="M254.892 241.543C253.858 242.147 252.564 241.888 251.874 240.853C251.271 239.818 251.529 238.525 252.564 237.835C253.599 237.231 254.892 237.49 255.582 238.525C256.272 239.56 255.841 240.853 254.892 241.543Z" fill="#BA7F4A"/>
<path d="M264.723 237.921C263.947 238.438 262.912 238.18 262.481 237.403C261.964 236.627 262.222 235.592 262.999 235.161C263.775 234.644 264.809 234.903 265.241 235.679C265.758 236.455 265.499 237.403 264.723 237.921Z" fill="#BA7F4A"/>
<path d="M278.694 215.068C277.918 215.586 276.883 215.327 276.452 214.551C275.934 213.775 276.193 212.74 276.969 212.309C277.745 211.791 278.78 212.05 279.211 212.826C279.729 213.602 279.47 214.637 278.694 215.068Z" fill="#BA7F4A"/>
<path d="M204.9 176.8C218.1 176.8 228.8 166.1 228.8 152.9C228.8 139.7 218.1 129 204.9 129C191.7 129 181 139.7 181 152.9C181 166.1 191.7 176.8 204.9 176.8Z" fill="#EBB64A"/>
<path d="M204.9 174.468C216.812 174.468 226.468 164.812 226.468 152.9C226.468 140.988 216.812 131.332 204.9 131.332C192.988 131.332 183.332 140.988 183.332 152.9C183.332 164.812 192.988 174.468 204.9 174.468Z" fill="white"/>
<path d="M185.664 152.252H200.237C201.338 152.252 201.921 150.892 201.143 150.115L190.845 139.752C190.327 139.234 189.42 139.298 188.967 139.817C186.441 142.861 184.822 146.682 184.433 150.827C184.368 151.605 184.951 152.252 185.664 152.252Z" fill="#EEC94D"/>
<path d="M200.301 153.483H185.663C184.886 153.483 184.303 154.131 184.433 154.908C184.821 159.053 186.505 162.875 188.967 165.919C189.42 166.502 190.327 166.566 190.845 165.983L201.143 155.685C201.985 154.843 201.403 153.483 200.301 153.483Z" fill="#EEC94D"/>
<path d="M202.827 132.433C198.682 132.821 194.861 134.505 191.817 136.967C191.234 137.42 191.169 138.327 191.752 138.845L202.05 149.143C202.827 149.92 204.188 149.402 204.188 148.236V133.663C204.252 132.951 203.605 132.368 202.827 132.433Z" fill="#EEC94D"/>
<path d="M207.685 149.208L217.983 138.91C218.502 138.392 218.437 137.485 217.919 137.031C214.874 134.505 211.053 132.886 206.908 132.498C206.131 132.433 205.483 133.016 205.483 133.728V148.301C205.483 149.402 206.843 149.985 207.685 149.208Z" fill="#EEC94D"/>
<path d="M209.434 152.252H224.007C224.784 152.252 225.367 151.605 225.238 150.827C224.849 146.682 223.165 142.861 220.704 139.817C220.25 139.234 219.344 139.169 218.825 139.752L208.527 150.05C207.75 150.892 208.333 152.252 209.434 152.252Z" fill="#EEC94D"/>
<path d="M224.072 153.483H209.499C208.398 153.483 207.815 154.843 208.592 155.62L218.89 165.919C219.409 166.437 220.315 166.372 220.769 165.854C223.295 162.81 224.914 158.988 225.303 154.843C225.367 154.131 224.784 153.483 224.072 153.483Z" fill="#EEC94D"/>
<path d="M202.115 156.527L191.816 166.825C191.298 167.343 191.363 168.25 191.881 168.704C194.925 171.23 198.747 172.849 202.892 173.237C203.669 173.302 204.317 172.719 204.317 172.007V157.434C204.252 156.333 202.892 155.75 202.115 156.527Z" fill="#EEC94D"/>
<path d="M207.685 156.527C206.908 155.75 205.548 156.268 205.548 157.434V172.007C205.548 172.784 206.196 173.367 206.973 173.237C211.118 172.849 214.939 171.165 217.984 168.703C218.567 168.25 218.631 167.343 218.048 166.825L207.685 156.527Z" fill="#EEC94D"/>
<path d="M81.1229 158.239C81.1229 158.239 84.2007 159.383 85.9594 157.238C87.7182 155.093 90.3563 149.016 96.292 147.014C97.8309 146.514 99.15 146.085 100.322 145.727C102.887 144.941 104.939 143.01 105.819 140.508C106.771 137.934 108.823 134.645 113.293 132.643C121.427 129.069 121.281 126.066 122.233 123.492C123.186 120.918 129.561 128.783 128.169 139.15C126.777 149.516 116.591 156.451 116.591 156.451C116.591 156.451 112.267 161.885 102.741 164.53C93.2875 167.176 88.964 161.671 87.2785 160.813C85.6663 159.955 82.6618 162.457 81.1962 161.17C79.8771 159.955 81.1229 158.239 81.1229 158.239Z" fill="#D4E86D"/>
<path d="M128.169 139.221C129.562 128.854 123.186 120.918 122.234 123.563C121.647 125.208 121.501 126.995 119.376 128.997C120.548 130.928 121.721 134.002 121.574 138.721C121.281 148.158 112.341 146.943 109.483 150.088C106.625 153.234 107.138 160.741 97.3913 161.456C91.6022 161.885 88.2313 159.097 86.4725 156.594C86.2527 156.88 86.1061 157.095 85.9595 157.309C84.2008 159.454 81.123 158.31 81.123 158.31C81.123 158.31 79.8773 159.955 81.2696 161.242C82.6619 162.529 85.6664 160.026 87.3519 160.884C88.9641 161.742 93.2876 167.247 102.814 164.602C112.267 161.957 116.664 156.523 116.664 156.523C116.664 156.523 126.704 149.588 128.169 139.221Z" fill="#B5CD5A"/>
<path d="M216.055 101C213.315 101 213.315 105.293 216.055 105.293C218.795 105.202 218.795 101 216.055 101Z" fill="#FFF1CE"/>
<path d="M166.016 250.011H165.925C165.377 250.103 164.92 250.742 165.012 251.29C165.012 251.838 165.377 252.478 165.925 252.569H166.016C166.839 252.752 167.661 252.204 167.661 251.29C167.661 250.377 166.839 249.92 166.016 250.011Z" fill="#FFF1CE"/>
<path d="M140.85 87C138.383 87 138.383 90.8363 140.85 90.8363C143.316 90.8363 143.316 87 140.85 87Z" fill="#FFF1CE"/>
<path d="M74.3641 184.675C74.3641 184.675 77.5152 185.533 79.0541 183.245C80.593 180.957 82.7181 174.666 88.434 172.163C89.8996 171.52 91.2187 170.948 92.3179 170.519C94.8094 169.446 96.7147 167.373 97.3743 164.871C98.0338 162.225 99.7925 158.794 104.043 156.434C111.884 152.144 111.371 149.213 112.104 146.568C112.836 143.922 119.871 151.215 119.432 161.653C118.992 172.092 109.466 179.885 109.466 179.885C109.466 179.885 105.655 185.676 96.4216 189.108C87.1882 192.539 82.425 187.463 80.7395 186.748C79.0541 186.033 76.2694 188.75 74.7305 187.606C73.3382 186.462 74.3641 184.675 74.3641 184.675Z" fill="#D4E86D"/>
<path d="M119.505 161.653C119.945 151.215 112.837 143.851 112.177 146.568C111.737 148.284 111.737 150.071 109.832 152.287C111.224 154.075 112.617 157.077 112.91 161.796C113.423 171.234 104.483 170.805 101.918 174.165C99.3529 177.525 100.525 184.961 90.9256 186.534C85.1364 187.463 81.6189 184.961 79.6404 182.601C79.4938 182.887 79.3472 183.173 79.2007 183.388C77.6618 185.676 74.5107 184.818 74.5107 184.818C74.5107 184.818 73.4848 186.605 74.9504 187.749C76.4893 188.893 79.274 186.176 80.9594 186.891C82.6449 187.606 87.4814 192.682 96.6415 189.25C105.875 185.819 109.685 180.028 109.685 180.028C109.685 180.028 119.065 172.092 119.505 161.653Z" fill="#B5CD5A"/>
</svg>
