<svg width="120" height="124" viewBox="0 0 120 124" fill="none" xmlns="http://www.w3.org/2000/svg">
<path d="M132.712 97.0655C161.927 67.8497 161.927 20.4816 132.712 -8.73416C103.496 -37.9499 56.1276 -37.9499 26.9118 -8.73416C-2.30395 20.4816 -2.30395 67.8497 26.9118 97.0655C56.1276 126.281 103.496 126.281 132.712 97.0655Z" fill="#3DA0A7"/>
<path d="M79.8152 116.649C119.846 116.649 152.298 84.1973 152.298 44.1661C152.298 4.13483 119.846 -28.3169 79.8152 -28.3169C39.784 -28.3169 7.33228 4.13483 7.33228 44.1661C7.33228 84.1973 39.784 116.649 79.8152 116.649Z" fill="#FFF6FA"/>
<path d="M130.121 94.4746C157.905 66.6897 157.905 21.6416 130.121 -6.14329C102.336 -33.9281 57.2876 -33.9281 29.5027 -6.14329C1.71785 21.6416 1.71785 66.6897 29.5027 94.4746C57.2876 122.259 102.336 122.259 130.121 94.4746Z" fill="#BCE5E8"/>
<path d="M50.1541 108.834C59.1843 112.983 69.2239 115.315 79.8154 115.315C119.109 115.315 150.964 83.4601 150.964 44.1663C150.964 21.4407 140.294 1.21878 123.707 -11.8071C125.338 -3.37292 125.911 5.3236 126.446 13.9215C127.031 23.3127 127.609 32.8171 125.89 42.0677C123.766 53.4924 118.224 64.0126 111.794 73.6912C104.774 84.2555 96.4383 94.2112 85.7859 101.097C75.3118 107.869 62.3405 111.411 50.1541 108.834Z" fill="#8FD2D7"/>
<path d="M120.189 84.543C142.488 62.2433 142.488 26.0884 120.189 3.78872C97.8891 -18.511 61.7342 -18.511 39.4345 3.78872C17.1348 26.0884 17.1348 62.2433 39.4345 84.543C61.7342 106.843 97.8891 106.843 120.189 84.543Z" fill="#FFF6FA"/>
<path d="M79.8154 98.8173C109.998 98.8173 134.467 74.349 134.467 44.166C134.467 13.9829 109.998 -10.4854 79.8154 -10.4854C49.6323 -10.4854 25.1641 13.9829 25.1641 44.166C25.1641 74.349 49.6323 98.8173 79.8154 98.8173Z" fill="#ADDFE2"/>
<path d="M114.209 78.5625C133.206 59.5656 133.205 28.7655 114.209 9.76855C95.2116 -9.22838 64.4115 -9.2284 45.4146 9.76853C26.4176 28.7655 26.4176 59.5656 45.4146 78.5625C64.4115 97.5595 95.2116 97.5595 114.209 78.5625Z" fill="#FFF6FA"/>
<path d="M79.8155 90.7712C105.922 90.7712 127.086 69.9053 127.086 44.1659C127.086 18.4265 105.922 -2.43945 79.8155 -2.43945C53.7087 -2.43945 32.5449 18.4265 32.5449 44.1659C32.5449 69.9053 53.7087 90.7712 79.8155 90.7712Z" fill="#BCE5E8"/>
<path d="M47.977 19.8984C37.7419 23.3741 30.0135 30.7335 25.8614 40.6908C21.37 51.4626 25.4569 61.6194 33.7538 69.0925C41.1748 75.7755 52.3919 78.5131 61.8293 74.7616C70.9443 71.1369 78.2106 61.3547 76.3003 51.17C74.4516 41.3207 66.1995 34.2483 56.0521 35.0105C44.7194 35.8622 37.4028 45.7282 34.0277 55.6595C32.3933 60.4695 31.7243 65.6206 32.5965 70.6356C33.5805 76.2936 38.2153 81.2526 42.3973 84.8103C50.8544 92.002 62.2915 94.3297 72.9402 91.5939C95.1304 85.8931 105.039 57.7971 96.7126 38.0054C92.7058 28.4823 84.0828 21.2589 73.5552 21.1638C64.0936 21.0781 54.8798 27.4256 51.5589 36.2499C47.8987 45.9761 49.7847 56.6006 56.4322 64.5434C63.6351 73.1496 74.6026 73.1235 84.1388 68.8949C93.3134 64.8267 93.9992 52.3199 88.3487 45.076C82.5155 37.5972 71.386 35.3404 63.501 41.1829C55.575 47.057 50.5339 58.9637 54.6338 68.429C58.5642 77.4974 67.0158 82.6746 76.5743 83.9586C98.0619 86.8473 120.215 63.9824 116.07 42.5675C111.925 21.1452 79.6903 15.0325 67.2264 32.0045C60.1614 41.6264 56.4043 53.5126 55.4259 65.3149C54.9618 70.9039 55.2843 76.7389 56.7248 82.1658C58.2623 87.9598 62.5021 92.0952 66.904 95.869C71.2276 99.5758 75.7003 102.96 81.3899 104.106C86.4757 105.131 91.7461 103.24 96.4554 101.542C99.1391 100.575 98.1215 96.2157 95.4081 97.1941C88.5854 99.6541 82.6516 101.11 75.991 97.2258C69.9957 93.7296 63.3034 87.8238 61.0708 81.1185C56.982 68.8372 60.836 53.2349 66.371 42.0532C69.4348 35.8641 73.1471 30.0421 80.0332 27.9101C86.5167 25.903 93.7979 26.3857 99.9516 29.2035C105.438 31.7156 109.544 36.6822 111.394 42.3588C113.651 49.2822 110.725 56.8596 107.335 62.8717C100.839 74.4001 87.8343 81.5676 74.6119 79.1579C69.2037 78.1721 64.6452 75.1511 61.1919 70.9561C56.6223 65.4044 56.9354 58.5034 60.029 52.3665C63.3314 45.8158 69.0862 41.3487 76.6712 42.575C83.8853 43.7416 88.4605 51.3545 87.3144 58.2816C86.1552 65.2795 77.2005 67.4338 71.2127 67.432C63.7749 67.4301 57.8971 60.7714 55.4818 54.3382C50.914 42.1761 57.5989 28.7991 70.2995 25.9701C84.1276 22.8895 93.2165 36.8723 95.1826 48.6616C97.4264 62.1207 89.9216 77.1676 78.5628 84.3556C66.7269 91.8455 51.5365 88.0977 42.2035 78.5243C36.9704 73.1552 35.8616 67.1283 37.4512 60.0185C39.1154 52.5808 43.003 45.4971 49.7139 41.5761C63.6538 33.4302 76.7271 49.066 69.8764 62.2996C63.0612 75.4642 45.4201 73.6025 35.9193 65.0485C31.0404 60.6559 27.9244 54.7985 28.4779 48.1752C29.0444 41.4084 33.3494 35.0776 38.1408 30.5639C41.2213 27.6641 45.0325 25.5973 49.0169 24.2444C51.7322 23.3256 50.709 18.9685 47.977 19.8984Z" fill="#FFA25F"/>
<path d="M55.3421 84.3461C64.0881 90.6973 74.558 92.7585 85.0874 90.401C96.476 87.8516 102.412 78.6509 103.722 67.5623C104.894 57.6441 100.656 46.904 92.145 41.3654C83.9245 36.0149 71.742 35.7279 64.5279 43.1675C57.5524 50.3611 56.5404 61.185 63.0203 69.029C70.2567 77.7899 82.5361 78.0713 92.596 75.0932C97.4675 73.6508 102.059 71.2243 105.651 67.6163C109.702 63.5462 111.078 56.8987 111.568 51.4308C112.559 40.3739 107.857 29.6916 99.4765 22.5744C82.0125 7.74555 53.3499 15.8728 41.9948 34.0972C36.5326 42.8656 35.6101 54.0771 41.611 62.7281C47.0024 70.5031 57.5058 74.3627 66.6283 71.981C76.6844 69.3551 84.2693 61.6826 86.9175 51.6693C89.7875 40.8193 83.4344 31.8795 74.476 26.5327C65.8586 21.3891 55.2508 28.0498 52.597 36.8442C49.8575 45.9238 54.4383 56.3153 63.762 59.381C73.1323 62.4616 85.7658 59.7071 91.1274 50.894C96.2655 42.45 95.6113 32.5597 91.1442 24.0131C81.0993 4.79915 49.6413 -0.0909722 34.5478 15.6548C19.4469 31.4061 33.0644 61.2558 54.1177 61.636C66.0543 61.8522 77.9274 58.0578 88.1289 52.0439C92.9594 49.1963 97.5383 45.5659 101.139 41.2554C104.982 36.656 105.912 30.8079 106.454 25.0325C106.985 19.3634 107.166 13.7557 104.818 8.44812C102.719 3.70334 98.1328 0.492343 94.0272 -2.37391C91.6865 -4.00645 88.7159 -0.659368 91.0809 0.98994C97.0277 5.14023 101.642 9.14702 102.315 16.827C102.92 23.7392 101.961 32.6138 97.775 38.3072C90.1062 48.736 75.1431 54.5952 62.8153 56.5296C55.9925 57.6012 49.0953 57.9293 43.3795 53.5386C37.9974 49.4032 34.19 43.1787 32.9376 36.5274C31.8213 30.5973 33.5079 24.3784 37.073 19.5907C41.4227 13.752 49.3003 11.7672 56.1659 11.0628C69.3286 9.71353 82.6908 16.1952 88.3544 28.3815C90.6709 33.3667 90.8349 38.8327 89.4036 44.0732C87.5083 51.0096 81.6919 54.7369 74.8953 55.7525C67.6402 56.8372 60.6702 54.7163 57.2933 47.8153C54.0823 41.2498 57.6568 33.1207 63.9745 30.0588C70.3574 26.9651 77.2863 33.0331 80.7415 37.9251C85.0315 43.9987 82.989 52.6422 79.1294 58.3299C71.8352 69.0812 57.0529 71.3436 47.4124 62.6069C36.9165 53.0931 43.0851 37.6008 51.5776 29.1903C61.2722 19.5889 77.892 17.0301 90.3186 22.157C103.267 27.4981 108.975 42.0661 106.543 55.2121C105.181 62.5846 100.898 66.9697 94.1745 69.7744C87.1412 72.7078 79.1108 73.6228 72.0365 70.4081C57.3381 63.727 62.5581 44.0248 77.3199 41.9804C92.0034 39.9453 100.667 55.4264 99.1653 68.1214C98.3937 74.6423 95.4119 80.5667 89.6831 83.938C83.8314 87.382 76.1756 87.5217 69.7237 86.2135C65.5772 85.373 61.6896 83.4535 58.2848 80.9804C55.972 79.3013 53.0051 82.6502 55.3421 84.3461Z" fill="#FFA25F"/>
<path d="M65.7447 84.3461C74.4907 90.6973 84.9606 92.7585 95.49 90.401C106.879 87.8516 112.814 78.6509 114.124 67.5623C115.297 57.6441 111.059 46.904 102.548 41.3654C94.3271 36.0149 82.1446 35.7279 74.9305 43.1675C67.955 50.3611 66.943 61.185 73.4229 69.029C80.6593 77.7899 92.9387 78.0713 102.999 75.0932C107.87 73.6508 112.462 71.2243 116.053 67.6163C120.105 63.5462 121.48 56.8987 121.97 51.4308C122.962 40.3739 118.26 29.6916 109.879 22.5744C92.4151 7.74555 63.7525 15.8728 52.3974 34.0972C46.9352 42.8656 46.0127 54.0771 52.0135 62.7281C57.405 70.5031 67.9084 74.3627 77.0308 71.981C87.087 69.3551 94.6719 61.6826 97.3201 51.6693C100.19 40.8193 93.837 31.8795 84.8786 26.5327C76.2612 21.3891 65.6534 28.0498 62.9996 36.8442C60.2601 45.9238 64.8409 56.3153 74.1646 59.381C83.5349 62.4616 96.1684 59.7071 101.53 50.894C106.668 42.45 106.014 32.5597 101.547 24.0131C91.5019 4.79915 60.0439 -0.0909722 44.9504 15.6548C29.8495 31.4061 43.467 61.2558 64.5203 61.636C76.4568 61.8522 88.33 58.0578 98.5315 52.0439C103.362 49.1963 107.941 45.5659 111.541 41.2554C115.384 36.656 116.314 30.8079 116.856 25.0325C117.388 19.3634 117.568 13.7557 115.22 8.44812C113.122 3.70334 108.535 0.492343 104.43 -2.37391C102.089 -4.00645 99.1185 -0.659368 101.483 0.98994C107.43 5.14023 112.045 9.14702 112.717 16.827C113.323 23.7392 112.363 32.6138 108.178 38.3072C100.509 48.736 85.5457 54.5952 73.2179 56.5296C66.3951 57.6012 59.4979 57.9293 53.7821 53.5386C48.4 49.4032 44.5926 43.1787 43.3402 36.5274C42.2239 30.5973 43.9105 24.3784 47.4756 19.5907C51.8253 13.752 59.7029 11.7672 66.5684 11.0628C79.7312 9.71353 93.0934 16.1952 98.757 28.3815C101.073 33.3667 101.237 38.8327 99.8062 44.0732C97.9109 51.0096 92.0945 54.7369 85.2979 55.7525C78.0428 56.8372 71.0728 54.7163 67.6959 47.8153C64.4849 41.2498 68.0593 33.1207 74.377 30.0588C80.7618 26.9651 87.6889 33.0331 91.1441 37.9251C95.4341 43.9987 93.3916 52.6422 89.532 58.3299C82.2378 69.0812 67.4555 71.3436 57.815 62.6069C47.3172 53.0931 53.4877 37.6008 61.9802 29.1903C71.6748 19.5889 88.2946 17.0301 100.721 22.157C113.67 27.4981 119.378 42.0661 116.946 55.2121C115.584 62.5846 111.301 66.9697 104.577 69.7744C97.5438 72.7078 89.5134 73.6228 82.4391 70.4081C67.7407 63.727 72.9607 44.0248 87.7224 41.9804C102.406 39.9453 111.07 55.4264 109.568 68.1214C108.796 74.6423 105.815 80.5667 100.086 83.938C94.2339 87.382 86.5782 87.5217 80.1263 86.2135C75.9797 85.373 72.0922 83.4535 68.6874 80.9804C66.3765 79.3013 63.4096 82.6502 65.7447 84.3461Z" fill="#FFA25F"/>
<path d="M44.0559 65.5233C46.6464 76.0174 53.3181 84.3459 62.886 89.333C73.2347 94.7282 83.7027 91.5228 91.856 83.8931C99.1484 77.0685 102.833 66.1271 99.8994 56.4046C97.0667 47.0138 87.9406 38.9387 77.6291 39.973C67.6587 40.9738 59.9061 48.5923 59.7998 58.7677C59.6806 70.1302 68.8869 78.265 78.4938 82.4749C83.1473 84.5137 88.222 85.6207 93.2929 85.179C99.0142 84.6814 104.352 80.4864 108.252 76.6231C116.139 68.8108 119.436 57.6141 117.619 46.7697C113.832 24.1751 86.6845 11.9031 66.2554 18.5097C56.4248 21.689 48.4932 29.6635 47.4999 40.1445C46.6072 49.5651 52.1459 59.2858 60.6534 63.3485C70.033 67.8249 80.7786 66.8521 89.2581 60.9071C98.4477 54.4646 99.3571 43.5363 95.9579 33.6721C92.6872 24.1844 80.2848 22.4345 72.5862 27.4458C64.6378 32.6192 61.438 43.5158 66.5871 51.8704C71.7624 60.2679 83.1958 66.3079 92.9761 63.0298C102.348 59.8877 108.226 51.9077 110.323 42.4945C115.036 21.3312 94.1446 -2.69093 72.4539 -0.391215C50.7557 1.91036 41.9146 33.5044 57.761 47.3716C66.7456 55.2324 78.2665 59.9902 89.9421 61.9731C95.4696 62.9124 101.312 63.0895 106.843 62.1166C112.747 61.0786 117.229 57.2097 121.367 53.1451C125.429 49.1551 129.183 44.9862 130.81 39.4158C132.265 34.4362 130.83 29.0243 129.54 24.1863C128.804 21.43 124.376 22.071 125.12 24.8572C126.989 31.8644 127.932 37.9026 123.495 44.2053C119.501 49.8801 113.044 56.0431 106.172 57.6961C93.5855 60.7226 78.3709 55.5511 67.7016 49.0806C61.7958 45.4987 56.313 41.3036 54.7755 34.261C53.3275 27.6284 54.4307 20.418 57.7648 14.5252C60.7354 9.27355 66.0337 5.60595 71.8482 4.24737C78.9374 2.58875 86.2391 6.15197 91.9399 10.0414C102.87 17.4977 108.904 31.0668 105.375 44.0358C103.93 49.3396 100.531 53.6241 96.0566 56.7065C90.134 60.786 83.2871 59.884 77.4353 56.2779C71.1903 52.4276 67.2301 46.3131 69.1012 38.8605C70.8791 31.7712 78.8554 27.8632 85.6595 29.5964C92.5344 31.3482 93.9153 40.4538 93.4028 46.4212C92.7655 53.8309 85.6315 59.1199 79.0138 60.978C66.5052 64.4909 53.7486 56.6898 52.0155 43.7935C50.1276 29.7529 64.8335 21.8903 76.7476 20.938C90.3502 19.8515 104.7 28.6124 110.893 40.5452C117.345 52.9774 112.313 67.7932 101.979 76.2727C96.1834 81.0287 90.0837 81.6195 83.1361 79.4278C75.868 77.1356 69.1403 72.6573 65.8063 65.6351C58.8792 51.0504 75.5754 39.3599 88.1754 47.3138C100.71 55.2287 97.35 72.6461 88.0151 81.3809C83.2219 85.8667 77.1203 88.472 70.5678 87.3538C63.8737 86.2133 57.9325 81.3828 53.8455 76.2224C51.2178 72.9052 49.4847 68.9319 48.4783 64.8468C47.7925 62.0738 43.3645 62.7223 44.0559 65.5233Z" fill="#EABF58"/>
<path d="M40.6399 26.8903C33.3606 35.6345 30.4664 46.4863 32.2089 57.7091C34.0949 69.8487 43.344 76.7218 54.9004 78.8706C65.2342 80.792 76.811 77.0871 83.22 68.5349C89.411 60.2716 90.5608 47.4983 83.2498 39.4046C76.1792 31.5773 64.8838 29.7622 56.1919 36.0221C46.4861 43.0126 45.3362 55.8902 47.7645 66.6619C48.9405 71.8782 51.1694 76.8709 54.7084 80.8944C58.7003 85.4324 65.5864 87.3389 71.2965 88.2353C82.8398 90.0449 94.3868 85.8517 102.445 77.5436C119.235 60.2324 112.693 29.5646 94.344 16.3702C85.516 10.0226 73.805 8.27459 64.3005 13.9736C55.7576 19.0948 50.9737 29.8572 52.8411 39.604C54.8985 50.3478 62.4294 58.8496 72.7632 62.3272C83.958 66.0954 93.7905 60.0479 100.03 51.0094C106.031 42.3174 99.7746 30.7108 90.7229 27.3134C81.3769 23.8042 70.143 27.893 66.2759 37.4701C62.3884 47.0976 64.403 60.5586 73.285 66.8036C81.7962 72.7877 92.2288 72.7895 101.517 68.6914C122.397 59.4777 129.721 26.7804 114.234 9.83072C98.7421 -7.12454 66.4437 5.09709 64.58 27.1848C63.5234 39.7065 66.6803 52.4406 72.2861 63.5739C74.9399 68.8461 78.4361 73.9077 82.7112 77.9891C87.2752 82.3462 93.3525 83.729 99.3795 84.7C105.297 85.6523 111.173 86.2319 116.911 84.1353C122.041 82.2605 125.733 77.6667 129.028 73.5555C130.906 71.2111 127.598 67.8584 125.699 70.227C120.925 76.1851 116.398 80.751 108.284 80.9243C100.982 81.079 91.7274 79.4539 86.0397 74.6606C75.6201 65.8811 70.5082 49.757 69.3341 36.6744C68.6837 29.4342 68.8198 22.1679 73.8292 16.4708C78.5479 11.1054 85.3483 7.54031 92.4226 6.68863C98.7291 5.92827 105.144 8.13296 109.924 12.2124C115.755 17.1865 117.289 25.5989 117.552 32.8577C118.053 46.7771 110.315 60.3592 97.1227 65.4599C91.7256 67.5472 85.9726 67.3385 80.5681 65.4692C73.4136 62.9962 69.9044 56.6282 69.3118 49.4178C68.6781 41.7211 71.3897 34.5498 78.8722 31.4842C85.9912 28.5676 94.2806 32.8875 97.0574 39.7382C99.8622 46.6578 93.0059 53.5122 87.6293 56.8015C80.9501 60.8847 72.0159 58.1377 66.3113 53.6892C55.5284 45.2787 54.1791 29.5982 64.0284 20.0807C74.7517 9.7189 90.5925 17.2759 98.8353 26.7804C108.245 37.6304 109.775 55.264 103.526 67.959C97.0146 81.1852 81.3172 86.1667 67.6792 82.7003C60.0309 80.7547 55.7241 75.954 53.2455 68.697C50.6532 61.1065 50.2506 52.6083 54.1214 45.4017C62.161 30.4293 82.4895 37.2838 83.6095 52.9289C84.724 68.4939 67.8637 76.5149 54.6339 74.0549C47.8391 72.7914 41.8252 69.2468 38.6831 62.9944C35.4739 56.6077 35.8597 48.5587 37.6823 41.8739C38.8546 37.5782 41.1412 33.6273 43.9739 30.2244C45.8953 27.9041 42.5837 24.5552 40.6399 26.8903Z" fill="#F7D075"/>
<path d="M115.714 20.6157C114.035 9.36314 107.863 -0.022049 98.3285 -6.19065C88.0152 -12.8643 76.7291 -10.5366 67.4315 -3.34489C59.1178 3.08834 54.1774 14.1918 56.2926 24.6691C58.337 34.7904 67.1035 44.1514 78.0113 44.0825C88.5594 44.0173 97.4339 36.7957 98.5465 26.1432C99.7914 14.2459 90.9467 4.81589 81.2912 -0.542034C76.6154 -3.13806 71.4066 -4.79665 66.0486 -4.83392C60.0049 -4.87678 53.9985 -1.00605 49.5295 2.65784C40.4946 10.0676 35.9362 21.4767 36.773 33.0181C38.5136 57.0701 65.7542 72.6052 87.8158 67.6946C98.431 65.3315 107.529 57.7559 109.603 46.8705C111.467 37.0864 106.622 26.352 98.1049 21.2568C88.7178 15.6399 77.3609 15.6007 67.8862 20.9959C57.6213 26.8421 55.59 38.2046 58.1804 48.8757C60.6721 59.1406 73.4976 62.1969 82.059 57.7037C90.8982 53.0651 95.3262 41.9617 90.7529 32.6995C86.1572 23.3888 74.7704 15.9324 64.1981 18.4036C54.0674 20.7723 47.1198 28.5548 43.9964 38.2139C36.9724 59.927 56.4976 87.1602 79.4537 86.8881C102.419 86.6141 114.799 54.3753 99.5585 38.281C90.9187 29.1567 79.3139 23.0366 67.2731 19.8088C61.5722 18.2806 55.4689 17.5184 49.5761 17.9936C43.2863 18.4987 38.208 22.114 33.4725 25.9643C28.8227 29.7456 24.4786 33.745 22.2237 39.4216C20.2072 44.4981 21.1781 50.3107 22.0522 55.5065C22.5516 58.4678 27.2554 58.2311 26.7522 55.2381C25.485 47.7091 25.0918 41.2908 30.3621 35.1222C35.1069 29.5704 42.4812 23.7466 49.8444 22.6918C63.3333 20.7611 78.7679 27.6807 89.3104 35.5117C95.1454 39.8465 100.479 44.7851 101.396 52.316C102.259 59.4089 100.392 66.8578 96.3195 72.704C92.6892 77.9147 86.774 81.2357 80.5476 82.0874C72.9534 83.1273 65.6554 78.6732 60.0645 74.0347C49.345 65.1433 44.3598 50.3275 49.3357 37.0864C51.3707 31.6689 55.357 27.5149 60.3478 24.7269C66.9562 21.035 74.0436 22.6545 79.819 27.0117C85.9838 31.6614 89.5303 38.4599 86.8374 46.0859C84.2749 53.3391 75.5326 56.6489 68.572 54.1628C61.5405 51.6488 60.9889 41.971 62.1164 35.7688C63.5141 28.0665 71.5128 23.2285 78.63 21.9333C92.0835 19.4845 104.683 28.9181 105.231 42.6027C105.826 57.5024 89.6403 64.2935 77.0608 64.1164C62.6997 63.9152 48.5231 53.3186 43.2099 40.2043C37.6731 26.5402 44.4064 11.5101 56.0727 3.64184C62.6159 -0.771224 69.0659 -0.789864 76.1309 2.1938C83.522 5.31351 90.1304 10.6696 92.9314 18.3551C98.7534 34.3227 80.1041 44.9286 67.6849 35.3495C55.3291 25.8208 60.5659 7.89834 71.209 -0.337018C76.675 -4.56558 83.3245 -6.69386 90.082 -4.87869C96.9848 -3.02252 102.734 2.62429 106.508 8.43508C108.934 12.1698 110.358 16.5046 111.012 20.8841C111.46 23.8622 116.163 23.6217 115.714 20.6157Z" fill="#FCDB9A"/>
<path d="M55.5303 -13.5239L56.4621 -9.16861L59.183 -3.3821L60.7559 92.5368L58.1039 102.571L56.0167 105.8L55.5303 -13.5239Z" fill="url(#paint0_radial_2706_13)"/>
<path d="M57.7239 92.8629C57.8879 92.8927 58.0072 92.9151 58.1097 92.9375C58.2234 92.9412 58.3762 92.9467 58.6017 92.9617C59.2428 93.0008 59.8783 93.025 60.5193 93.0325C60.5548 93.0325 60.5883 93.0381 60.6237 93.04L60.756 92.5387L59.185 -3.38027L59.0284 -3.71387C58.9874 -3.68964 58.9464 -3.66912 58.9054 -3.64489C58.5514 -3.43617 58.1991 -3.22186 57.8506 -3.00195C57.6997 -2.86031 56.9785 -2.2919 56.7884 -2.11113C56.4175 -1.75518 56.0112 -1.45698 55.5845 -1.20352L55.9646 92.4156C56.5424 92.5871 57.1257 92.7548 57.7239 92.8629Z" fill="#8A6D3F"/>
<path d="M54.1029 -33.582L49.8501 122.688C49.8501 122.688 53.678 125.027 56.015 122.688V-33.582C56.0168 -33.582 55.5919 -36.7725 54.1029 -33.582Z" fill="#912828"/>
<path d="M55.113 -34.9648L51.0298 123.246C51.0298 123.246 52.8244 123.887 54.0284 123.68L53.9352 116.924L55.113 -34.9648Z" fill="#B95F5F"/>
<path d="M55.1129 -34.965L52.6455 123.648C52.6455 123.648 55.8696 124.03 56.0168 122.686L55.4558 -34.9352C55.4558 -34.9352 55.2564 -35.0414 55.1129 -34.965C55.1129 -34.965 54.9694 -34.8868 55.1129 -34.965Z" fill="#AF4040"/>
<path d="M54.0042 54.8156C54.0042 55.5648 53.7414 56.1742 53.4171 56.1742C53.0929 56.1742 52.8301 55.5667 52.8301 54.8156C52.8301 54.0664 53.0929 53.457 53.4171 53.457C53.7414 53.457 54.0042 54.0646 54.0042 54.8156Z" fill="#FFA773"/>
<path d="M42.6584 4.18606L43.1615 9.53279L45.1314 86.8937L43.8958 89.199C43.8958 89.199 42.5242 90.6191 42.6602 92.0206L40.7146 91.3496L41.1824 0.302246L42.6584 4.18606Z" fill="url(#paint1_radial_2706_13)"/>
<path d="M43.1074 8.97021C43.0552 9.02612 43.003 9.08019 42.949 9.1361C42.4328 9.87037 41.814 10.5002 41.1263 11.009L40.748 84.5589C41.2177 84.7135 41.6761 84.9036 42.0973 85.1813C42.6434 85.541 43.1577 85.9416 43.6665 86.3516C44.0597 86.6442 44.4622 86.9163 44.9151 87.1195C44.9393 87.1307 44.9617 87.1474 44.9859 87.1586L45.1294 86.8921L43.1596 9.53117L43.1074 8.97021Z" fill="#8A6D3F"/>
<path d="M39.7044 -33.582L35.4517 122.688C35.4517 122.688 39.2795 125.027 41.6165 122.688V-33.582C41.6184 -33.582 41.1935 -36.7725 39.7044 -33.582Z" fill="#912828"/>
<path d="M40.7146 -34.9648L36.6313 123.246C36.6313 123.246 38.426 123.887 39.6299 123.68L39.5368 116.924L40.7146 -34.9648Z" fill="#B95F5F"/>
<path d="M40.7148 -34.965L38.2473 123.648C38.2473 123.648 41.4714 124.03 41.6186 122.686L41.0577 -34.9352C41.0558 -34.9352 40.8564 -35.0414 40.7148 -34.965C40.7148 -34.965 40.5713 -34.8868 40.7148 -34.965Z" fill="#AF4040"/>
<path d="M39.6057 54.8156C39.6057 55.5648 39.343 56.1742 39.0187 56.1742C38.6944 56.1742 38.4316 55.5667 38.4316 54.8156C38.4316 54.0664 38.6944 53.457 39.0187 53.457C39.343 53.457 39.6057 54.0646 39.6057 54.8156Z" fill="#FFA773"/>
<path d="M43.1614 9.53271L46.6575 87.1583L45.1312 86.8918L43.1614 9.53271Z" fill="#FFD38F"/>
<path d="M59.1831 -3.38232L61.6785 92.613L60.6218 93.0379L59.1831 -3.38232Z" fill="#FFD38F"/>
<path d="M53.4168 99.7697C53.4168 100.811 53.0291 101.658 52.5502 101.658C52.0712 101.658 51.6836 100.811 51.6836 99.7697C51.6836 98.7279 52.0712 97.8818 52.5502 97.8818C53.0291 97.8818 53.4168 98.726 53.4168 99.7697Z" fill="white"/>
<path d="M38.726 62.0985C38.9905 62.0985 39.205 61.6655 39.205 61.1313C39.205 60.5971 38.9905 60.1641 38.726 60.1641C38.4615 60.1641 38.2471 60.5971 38.2471 61.1313C38.2471 61.6655 38.4615 62.0985 38.726 62.0985Z" fill="white"/>
<path d="M116.303 75.0095C132.28 75.0095 145.232 62.6332 145.232 47.3663C145.232 32.0994 132.28 19.7231 116.303 19.7231C100.326 19.7231 87.374 32.0994 87.374 47.3663C87.374 62.6332 100.326 75.0095 116.303 75.0095Z" fill="#5C1A09"/>
<path d="M115.697 74.3721C131.34 74.3721 144.021 62.1385 144.021 47.0476C144.021 31.9567 131.34 19.7231 115.697 19.7231C100.055 19.7231 87.374 31.9567 87.374 47.0476C87.374 62.1385 100.055 74.3721 115.697 74.3721Z" fill="#6A2A2A"/>
<path d="M115.507 73.1552C130.783 73.1552 143.166 60.7717 143.166 45.4958C143.166 30.22 130.783 17.8364 115.507 17.8364C100.231 17.8364 87.8474 30.22 87.8474 45.4958C87.8474 60.7717 100.231 73.1552 115.507 73.1552Z" fill="#D34040"/>
<path d="M115.507 72.0536C130.174 72.0536 142.065 60.1634 142.065 45.496C142.065 30.8287 130.174 18.9385 115.507 18.9385C100.84 18.9385 88.9495 30.8287 88.9495 45.496C88.9495 60.1634 100.84 72.0536 115.507 72.0536Z" fill="#F35C53"/>
<path d="M133.75 63.75C143.829 53.6708 143.829 37.3292 133.75 27.25C123.671 17.1708 107.329 17.1708 97.25 27.25C87.1708 37.3292 87.1708 53.6708 97.25 63.75C107.329 73.8292 123.671 73.8292 133.75 63.75Z" fill="#F35C53"/>
<path d="M115.507 70.9605C129.571 70.9605 140.971 59.5596 140.971 45.4959C140.971 31.4322 129.571 20.0312 115.507 20.0312C101.443 20.0312 90.0422 31.4322 90.0422 45.4959C90.0422 59.5596 101.443 70.9605 115.507 70.9605Z" fill="#C02E24"/>
<path d="M133.052 63.0527C142.747 53.3586 142.747 37.6414 133.053 27.9473C123.358 18.2532 107.641 18.2532 97.947 27.9473C88.2529 37.6414 88.2529 53.3586 97.947 63.0527C107.641 72.7468 123.358 72.7468 133.052 63.0527Z" fill="#FF9D97"/>
<path d="M133.736 61.2652C142.089 51.2064 140.607 36.1995 130.428 27.7465C120.248 19.2934 105.224 20.5952 96.8716 30.6541C88.5191 40.7129 90.0005 55.7197 100.18 64.1728C110.36 72.6258 125.384 71.3241 133.736 61.2652Z" fill="#DF6565"/>
<path d="M115.507 66.6688C127.2 66.6688 136.68 57.1893 136.68 45.4958C136.68 33.8022 127.2 24.3228 115.507 24.3228C103.813 24.3228 94.3337 33.8022 94.3337 45.4958C94.3337 57.1893 103.813 66.6688 115.507 66.6688Z" fill="#FF9D97"/>
<path d="M122.298 64.648C132.873 60.8816 138.393 49.2553 134.626 38.6801C130.86 28.1048 119.233 22.5852 108.658 26.3516C98.0829 30.1181 92.5633 41.7443 96.3298 52.3196C100.096 62.8948 111.722 68.4145 122.298 64.648Z" fill="#FF8585"/>
<path d="M115.507 64.1203C125.793 64.1203 134.131 55.7819 134.131 45.4959C134.131 35.21 125.793 26.8716 115.507 26.8716C105.221 26.8716 96.8823 35.21 96.8823 45.4959C96.8823 55.7819 105.221 64.1203 115.507 64.1203Z" fill="#F26C6C"/>
<path d="M115.507 63.4747C125.436 63.4747 133.485 55.4254 133.485 45.4959C133.485 35.5665 125.436 27.5171 115.507 27.5171C105.577 27.5171 97.5278 35.5665 97.5278 45.4959C97.5278 55.4254 105.577 63.4747 115.507 63.4747Z" fill="#FF8585"/>
<path d="M123.572 47.4688C124.655 43.0031 121.913 38.5048 117.447 37.4217C112.981 36.3386 108.483 39.0808 107.4 43.5465C106.317 48.0122 109.059 52.5104 113.525 53.5935C117.99 54.6766 122.489 51.9345 123.572 47.4688Z" fill="#CA4844"/>
<path d="M116.19 53.0284C120.374 52.6405 123.452 48.9345 123.064 44.7506C122.676 40.5668 118.97 37.4895 114.786 37.8774C110.602 38.2652 107.525 41.9713 107.913 46.1551C108.301 50.3389 112.007 53.4162 116.19 53.0284Z" fill="#FF928A"/>
<path d="M116.146 52.5508C120.065 52.1875 122.948 48.7156 122.585 44.7962C122.221 40.8768 118.749 37.9939 114.83 38.3573C110.91 38.7206 108.028 42.1925 108.391 46.1119C108.754 50.0314 112.226 52.9141 116.146 52.5508Z" fill="#FF685F"/>
<path d="M124.619 27.1299C122.471 30.7737 120.321 34.4198 118.173 38.0636C118.26 38.3864 118.696 38.4999 119.003 38.3664C119.311 38.2328 119.511 37.939 119.696 37.6585C120.953 35.7576 122.211 33.8566 123.36 31.8889C124.096 30.6268 124.806 29.2868 124.902 27.8288C124.918 27.5795 124.866 27.2612 124.624 27.2011L124.619 27.1299Z" fill="#CA4844"/>
<path d="M116.426 42.4841C118.189 39.3144 119.952 36.1425 121.713 32.9728C123.004 30.6489 124.31 28.2916 124.994 25.7407C127.614 26.2393 130.058 27.4858 131.974 29.3C126.721 33.8765 121.786 38.8336 117.23 44.1158L116.426 42.4841Z" fill="#DF6565"/>
<path d="M119.168 45.5205C122.596 46.0503 126.024 46.5801 129.452 47.1098C131.965 47.4994 134.512 47.8889 137.04 47.6307C137.403 50.2439 137.031 52.9551 135.981 55.3769C130.189 52.0892 124.154 49.2311 117.94 46.8383L119.168 45.5205Z" fill="#DF6565"/>
<path d="M100.048 60.165C102.922 56.7571 106.561 54.0971 110.165 51.4705C109.942 51.0965 109.646 50.7649 109.299 50.5C107.405 51.9647 105.604 53.5473 103.908 55.2368C102.405 56.7326 100.967 58.3442 100.052 60.2562L100.048 60.165Z" fill="#CA4844"/>
<path d="M112.829 48.002C110.249 50.3215 107.669 52.6387 105.092 54.9581C103.2 56.6587 101.288 58.3816 99.8852 60.5029C97.6326 59.1295 95.7673 57.1261 94.5586 54.78C100.769 52.376 106.801 49.5112 112.586 46.2124L112.829 48.002Z" fill="#DF6565"/>
<path d="M116.057 66.8916C115.251 62.3462 114.886 57.7207 114.968 53.1042C115.371 52.9817 115.792 52.9261 116.212 52.9394C117.096 57.4959 117.141 62.2149 116.344 66.7892L116.057 66.8916Z" fill="#CA4844"/>
<path d="M116.651 49.1888C117.839 52.4475 119.026 55.7063 120.214 58.9651C121.085 61.3535 121.971 63.7731 123.415 65.8654C121.301 67.4436 118.745 68.4253 116.119 68.6701C116.208 62.0124 115.8 55.3457 114.901 48.748L116.651 49.1888Z" fill="#DF6565"/>
<path d="M98.2381 32.8459C99.5091 33.113 100.351 34.2727 101.245 35.2143C103.465 37.556 106.614 38.936 108.546 41.5203C108.74 41.2844 108.934 41.0484 109.127 40.8125C109.187 40.739 109.25 40.6611 109.256 40.5676C109.265 40.4497 109.185 40.345 109.109 40.2538C106.55 37.1909 103.767 34.1258 100.112 32.5209C99.4423 32.2271 98.6053 32.0045 98.0244 32.4474C98.0199 32.5365 98.0133 32.6277 98.0066 32.7168L98.2381 32.8459Z" fill="#CA4844"/>
<path d="M112.057 43.1165C109.33 40.9729 106.605 38.8271 103.878 36.6836C101.88 35.1121 99.854 33.5227 97.5234 32.5055C98.4917 30.0503 100.146 27.8711 102.249 26.2773C105.682 31.9846 109.537 37.4359 113.777 42.5711L112.057 43.1165Z" fill="#DF6565"/>
<path d="M114.327 36.7744C113 35.6993 112.319 33.883 112.613 32.2002C112.751 31.4077 113.152 30.5886 113.893 30.2703C114.848 29.8607 116.014 30.4995 116.455 31.4411C116.893 32.3827 116.749 33.5023 116.386 34.4751C116.023 35.4522 115.453 36.3515 114.723 37.0972C114.63 37.0482 114.407 36.839 114.327 36.7744Z" fill="#CA4844"/>
<path d="M114.572 35.8997C113.481 35.016 112.922 33.5225 113.163 32.1402C113.276 31.488 113.606 30.8135 114.214 30.5531C114.997 30.2147 115.959 30.7423 116.319 31.5169C116.68 32.2915 116.56 33.2108 116.264 34.0122C115.965 34.8157 115.496 35.5547 114.897 36.1691C114.821 36.1246 114.639 35.9532 114.572 35.8997Z" fill="#FAD383"/>
<path d="M115.709 32.5745C115.438 32.9017 114.952 32.9463 114.623 32.6747C114.293 32.4031 114.251 31.9179 114.523 31.5884C114.794 31.2612 115.279 31.2167 115.609 31.4883C115.936 31.7598 115.981 32.2473 115.709 32.5745Z" fill="#E4B34C"/>
<path d="M115.342 34.6241C115.155 34.849 114.825 34.8868 114.607 34.7043C114.389 34.524 114.365 34.1923 114.552 33.9675C114.739 33.7427 115.068 33.7048 115.286 33.8874C115.504 34.0677 115.529 34.3993 115.342 34.6241Z" fill="#E4B34C"/>
<path d="M115.607 31.9869C115.471 32.1516 115.204 32.1516 115.008 31.9913C114.814 31.8288 114.765 31.5662 114.901 31.4014C115.037 31.2367 115.306 31.2367 115.5 31.397C115.696 31.5595 115.743 31.8244 115.607 31.9869Z" fill="#FFEAB8"/>
<path d="M106.717 45.2509C105.561 46.5086 103.705 47.074 102.044 46.6755C101.261 46.4886 100.469 46.0367 100.197 45.2776C99.8475 44.3005 100.56 43.1742 101.526 42.7935C102.492 42.4129 103.6 42.6288 104.549 43.0517C105.501 43.4746 106.365 44.1001 107.062 44.8748C107.008 44.9638 106.786 45.173 106.717 45.2509Z" fill="#CA4844"/>
<path d="M105.86 44.9509C104.91 45.9838 103.385 46.449 102.018 46.124C101.375 45.9704 100.723 45.5987 100.5 44.9754C100.213 44.1719 100.798 43.2459 101.593 42.9342C102.387 42.6226 103.298 42.7985 104.079 43.1457C104.863 43.493 105.571 44.0071 106.145 44.6438C106.1 44.715 105.918 44.8886 105.86 44.9509Z" fill="#FAD383"/>
<path d="M102.61 43.607C102.919 43.8986 102.935 44.3861 102.643 44.6955C102.352 45.0049 101.864 45.0205 101.555 44.7289C101.246 44.4373 101.23 43.9498 101.522 43.6404C101.813 43.331 102.301 43.3154 102.61 43.607Z" fill="#E4B34C"/>
<path d="M104.636 44.1028C104.849 44.3031 104.865 44.6348 104.671 44.8418C104.478 45.0488 104.146 45.0533 103.932 44.8507C103.718 44.6504 103.703 44.3187 103.897 44.1117C104.09 43.9047 104.422 43.9002 104.636 44.1028Z" fill="#FFE199"/>
<path d="M102.02 43.6733C102.176 43.8202 102.16 44.0873 101.987 44.272C101.813 44.4568 101.546 44.488 101.392 44.341C101.236 44.1941 101.252 43.927 101.426 43.7423C101.597 43.5575 101.864 43.5264 102.02 43.6733Z" fill="#FFEAB8"/>
<path d="M112.31 53.7249C112.876 55.3365 112.502 57.2397 111.371 58.5196C110.837 59.1228 110.067 59.6103 109.27 59.4923C108.241 59.341 107.585 58.1835 107.703 57.1506C107.823 56.1178 108.533 55.243 109.352 54.6042C110.173 53.9631 111.131 53.4957 112.143 53.2441C112.195 53.3332 112.277 53.627 112.31 53.7249Z" fill="#CA4844"/>
<path d="M111.642 54.3394C112.108 55.6638 111.8 57.2286 110.87 58.2815C110.432 58.7779 109.797 59.1785 109.143 59.0806C108.297 58.9559 107.756 58.0055 107.856 57.1552C107.956 56.3049 108.539 55.5859 109.212 55.0606C109.886 54.533 110.674 54.1502 111.507 53.9409C111.549 54.0166 111.614 54.2592 111.642 54.3394Z" fill="#FFE199"/>
<path d="M108.929 56.5743C109.332 56.4385 109.77 56.6544 109.906 57.0573C110.042 57.4602 109.826 57.8987 109.423 58.0345C109.02 58.1703 108.582 57.9544 108.446 57.5515C108.308 57.1486 108.526 56.7101 108.929 56.5743Z" fill="#E4B34C"/>
<path d="M110.318 55.0204C110.596 54.9269 110.894 55.0694 110.986 55.3365C111.077 55.6058 110.925 55.8997 110.647 55.9931C110.369 56.0866 110.071 55.9442 109.979 55.6771C109.888 55.4077 110.04 55.1139 110.318 55.0204Z" fill="#E4B34C"/>
<path d="M108.709 57.1265C108.911 57.0575 109.14 57.1977 109.22 57.4381C109.301 57.6785 109.203 57.9278 109.002 57.9946C108.8 58.0636 108.571 57.9234 108.49 57.683C108.41 57.4448 108.508 57.1955 108.709 57.1265Z" fill="#FFEAB8"/>
<path d="M122.48 23.2604C122.878 22.7818 122.735 22.0074 122.161 21.5307C121.586 21.0539 120.799 21.0554 120.401 21.5339C120.004 22.0124 120.147 22.7869 120.721 23.2636C121.295 23.7404 122.083 23.7389 122.48 23.2604Z" fill="#FFEAB8"/>
<path d="M116.869 22.1922C116.589 22.5283 116.135 22.6106 115.852 22.3769C115.569 22.1432 115.567 21.6802 115.847 21.3441C116.128 21.008 116.582 20.9256 116.865 21.1593C117.147 21.393 117.15 21.856 116.869 22.1922Z" fill="#FFEAB8"/>
<path d="M114.042 70.4286C113.828 70.6846 113.348 70.6379 112.967 70.324C112.586 70.0079 112.453 69.5449 112.666 69.2867C112.88 69.0307 113.361 69.0775 113.742 69.3913C114.122 69.7074 114.256 70.1704 114.042 70.4286Z" fill="#FFEAB8"/>
<path d="M108.444 65.3844C108.337 65.5135 108.137 65.5224 107.996 65.4066C107.856 65.2909 107.829 65.0928 107.936 64.9637C108.043 64.8346 108.243 64.8257 108.384 64.9414C108.524 65.0572 108.551 65.2575 108.444 65.3844Z" fill="#FFEAB8"/>
<path d="M69.8464 23.3425C71.7701 23.3425 73.3295 22.5628 73.3295 21.6009C73.3295 20.6391 71.7701 19.8594 69.8464 19.8594C67.9227 19.8594 66.3633 20.6391 66.3633 21.6009C66.3633 22.5628 67.9227 23.3425 69.8464 23.3425Z" fill="white"/>
<path d="M68.1048 39.8877C69.0667 39.8877 69.8464 39.3029 69.8464 38.5815C69.8464 37.8602 69.0667 37.2754 68.1048 37.2754C67.143 37.2754 66.3633 37.8602 66.3633 38.5815C66.3633 39.3029 67.143 39.8877 68.1048 39.8877Z" fill="white"/>
<path d="M71.588 57.7381C71.588 57.9777 71.1989 58.1735 70.7172 58.1735C70.2355 58.1735 69.8464 57.9793 69.8464 57.7381C69.8464 57.497 70.2355 57.3027 70.7172 57.3027C71.1989 57.3027 71.588 57.4986 71.588 57.7381Z" fill="white"/>
<path d="M75.9419 84.7324C75.9419 85.4533 75.3571 86.0386 74.6358 86.0386C73.9144 86.0386 73.3296 85.4533 73.3296 84.7324C73.3296 84.0116 73.9144 83.4263 74.6358 83.4263C75.3589 83.4263 75.9419 84.0116 75.9419 84.7324Z" fill="white"/>
<defs>
<radialGradient id="paint0_radial_2706_13" cx="0" cy="0" r="1" gradientUnits="userSpaceOnUse" gradientTransform="translate(58.1431 46.1376) scale(42.2281 42.2281)">
<stop stop-color="#330902"/>
<stop offset="1" stop-color="#170300"/>
</radialGradient>
<radialGradient id="paint1_radial_2706_13" cx="0" cy="0" r="1" gradientUnits="userSpaceOnUse" gradientTransform="translate(42.9226 46.1596) scale(32.4644 32.4645)">
<stop stop-color="#330902"/>
<stop offset="1" stop-color="#170300"/>
</radialGradient>
</defs>
</svg>
