<svg width="22" height="28" viewBox="0 0 22 28" fill="none" xmlns="http://www.w3.org/2000/svg">
<path d="M5 7H9M5 14H17M5 18H17M5 22H9M3 27H19C19.5304 27 20.0391 26.7893 20.4142 26.4142C20.7893 26.0391 21 25.5304 21 25V3C21 2.46957 20.7893 1.96086 20.4142 1.58579C20.0391 1.21071 19.5304 1 19 1H3C2.46957 1 1.96086 1.21071 1.58579 1.58579C1.21071 1.96086 1 2.46957 1 3V25C1 25.5304 1.21071 26.0391 1.58579 26.4142C1.96086 26.7893 2.46957 27 3 27Z" stroke="#97A2B0" stroke-width="2" stroke-linecap="round" stroke-linejoin="round"/>
<path d="M17 7.5C17.2761 7.5 17.5 7.27614 17.5 7C17.5 6.72386 17.2761 6.5 17 6.5C16.7239 6.5 16.5 6.72386 16.5 7C16.5 7.27614 16.7239 7.5 17 7.5Z" fill="#97A2B0" stroke="#97A2B0"/>
</svg>
